<svg width="80" height="24" viewBox="0 0 80 24" fill="none" xmlns="http://www.w3.org/2000/svg">
<path d="M0 23.1185V0.634627H5.62097V3.17313H6.43692C6.76934 2.26652 7.3133 1.60168 8.06881 1.17859C8.85454 0.755508 9.76115 0.543966 10.7886 0.543966H13.5085V5.62097H10.698C9.2474 5.62097 8.0537 6.01383 7.11687 6.79956C6.18004 7.55507 5.71163 8.73366 5.71163 10.3353V23.1185H0Z" fill="black"/>
<path d="M26.5402 23.4811C24.7875 23.4811 23.2462 23.0883 21.9165 22.3026C20.6171 21.4866 19.6047 20.3685 18.8794 18.9481C18.1541 17.5278 17.7915 15.8959 17.7915 14.0524V0.634627H23.5031V13.5991C23.5031 15.2915 23.9111 16.5607 24.727 17.4069C25.5732 18.253 26.7669 18.6761 28.3081 18.6761C30.0609 18.6761 31.4208 18.1019 32.3879 16.9536C33.3549 15.775 33.8384 14.1431 33.8384 12.0579V0.634627H39.5501V23.1185H33.9291V20.172H33.1131C32.7505 20.9275 32.0705 21.6679 31.0733 22.3932C30.076 23.1185 28.565 23.4811 26.5402 23.4811Z" fill="black"/>
<path d="M52.8868 23.7531C51.2851 23.7531 49.8496 23.4811 48.5804 22.9372C47.3111 22.363 46.2987 21.5471 45.5432 20.4893C44.818 19.4014 44.4553 18.0868 44.4553 16.5456C44.4553 15.0044 44.818 13.72 45.5432 12.6925C46.2987 11.6348 47.3262 10.8491 48.6257 10.3353C49.9554 9.79137 51.4664 9.51938 53.1587 9.51938H59.3237V8.25013C59.3237 7.19242 58.9913 6.33115 58.3264 5.6663C57.6616 4.97123 56.6039 4.6237 55.1533 4.6237C53.7329 4.6237 52.6752 4.95613 51.9802 5.62097C51.2851 6.2556 50.8318 7.08665 50.6202 8.11414L45.3619 6.34626C45.7246 5.19789 46.2987 4.15529 47.0845 3.21846C47.9004 2.25141 48.9732 1.48079 50.3029 0.90661C51.6628 0.302203 53.3098 0 55.2439 0C58.2055 0 60.5476 0.740397 62.2702 2.22119C63.9927 3.70198 64.854 5.84762 64.854 8.65811V17.0442C64.854 17.9508 65.2771 18.4041 66.1232 18.4041H67.9365V23.1185H64.1287C63.0106 23.1185 62.0888 22.8465 61.3635 22.3026C60.6383 21.7586 60.2756 21.0333 60.2756 20.1267V20.0814H59.4143C59.2935 20.444 59.0215 20.9275 58.5984 21.5319C58.1753 22.1061 57.5105 22.6199 56.6039 23.0732C55.6972 23.5265 54.4582 23.7531 52.8868 23.7531ZM53.884 19.1294C55.4857 19.1294 56.7852 18.6912 57.7824 17.8148C58.8099 16.9082 59.3237 15.7145 59.3237 14.2337V13.7804H53.5667C52.509 13.7804 51.678 14.0071 51.0735 14.4604C50.4691 14.9137 50.1669 15.5483 50.1669 16.3643C50.1669 17.1802 50.4842 17.8451 51.1189 18.3588C51.7535 18.8726 52.6752 19.1294 53.884 19.1294Z" fill="black"/>
<path d="M75.6936 23.7531C74.4848 23.7531 73.4573 23.3603 72.6112 22.5745C71.7952 21.7586 71.3872 20.716 71.3872 19.4467C71.3872 18.1775 71.7952 17.15 72.6112 16.3643C73.4573 15.5483 74.4848 15.1404 75.6936 15.1404C76.9326 15.1404 77.9601 15.5483 78.7761 16.3643C79.592 17.15 80 18.1775 80 19.4467C80 20.716 79.592 21.7586 78.7761 22.5745C77.9601 23.3603 76.9326 23.7531 75.6936 23.7531Z" fill="black"/>
</svg>
