<svg width="88" height="26" viewBox="0 0 88 26" fill="none" xmlns="http://www.w3.org/2000/svg">
<path d="M0 25.3053V0.694658H6.15267V3.47328H7.0458C7.40967 2.48092 8.00509 1.75318 8.83206 1.29008C9.69211 0.826973 10.6845 0.595421 11.8092 0.595421H14.7863V6.15267H11.7099C10.1221 6.15267 8.81552 6.5827 7.79008 7.44275C6.76463 8.26972 6.25191 9.5598 6.25191 11.313V25.3053H0Z" fill="black" fill-opacity="0.5"/>
<path d="M29.0507 25.7023C27.1322 25.7023 25.4451 25.2723 23.9897 24.4122C22.5673 23.5191 21.4591 22.2952 20.6653 20.7405C19.8714 19.1858 19.4744 17.3995 19.4744 15.3817V0.694658H25.7263V14.8855C25.7263 16.7379 26.1729 18.1272 27.066 19.0534C27.9922 19.9796 29.2988 20.4427 30.9859 20.4427C32.9044 20.4427 34.393 19.8142 35.4515 18.5573C36.51 17.2672 37.0393 15.4809 37.0393 13.1985V0.694658H43.2912V25.3053H37.1385V22.0802H36.2454C35.8485 22.9071 35.1042 23.7176 34.0126 24.5114C32.921 25.3053 31.267 25.7023 29.0507 25.7023Z" fill="black" fill-opacity="0.5"/>
<path d="M57.8895 26C56.1363 26 54.565 25.7023 53.1757 25.1069C51.7864 24.4784 50.6783 23.5852 49.8513 22.4275C49.0574 21.2366 48.6604 19.7977 48.6604 18.1107C48.6604 16.4237 49.0574 15.0178 49.8513 13.8931C50.6783 12.7354 51.8029 11.8753 53.2253 11.313C54.6808 10.7176 56.3347 10.4198 58.1872 10.4198H64.9352V9.03054C64.9352 7.87278 64.5714 6.93003 63.8436 6.20229C63.1159 5.44148 61.9582 5.06107 60.3704 5.06107C58.8157 5.06107 57.6579 5.42494 56.8971 6.15267C56.1363 6.84733 55.6401 7.757 55.4085 8.88168L49.6528 6.94657C50.0498 5.68957 50.6783 4.54835 51.5383 3.5229C52.4314 2.46438 53.6057 1.62087 55.0612 0.992368C56.5498 0.330789 58.3526 0 60.4696 0C63.7113 0 66.2749 0.810433 68.1604 2.4313C70.0459 4.05216 70.9887 6.40076 70.9887 9.4771V18.6565C70.9887 19.6489 71.4518 20.145 72.378 20.145H74.3627V25.3053H70.1948C68.9709 25.3053 67.962 25.0076 67.1681 24.4122C66.3742 23.8168 65.9772 23.0229 65.9772 22.0305V21.9809H65.0345C64.9022 22.3779 64.6045 22.9071 64.1414 23.5687C63.6783 24.1972 62.9505 24.7595 61.9582 25.2557C60.9658 25.7519 59.6096 26 57.8895 26ZM58.9811 20.9389C60.7342 20.9389 62.1566 20.4593 63.2482 19.5C64.3729 18.5076 64.9352 17.201 64.9352 15.5802V15.084H58.6337C57.476 15.084 56.5663 15.3321 55.9047 15.8282C55.2431 16.3244 54.9123 17.0191 54.9123 17.9122C54.9123 18.8053 55.2597 19.5331 55.9543 20.0954C56.649 20.6578 57.6579 20.9389 58.9811 20.9389Z" fill="black" fill-opacity="0.5"/>
<path d="M82.8537 26C81.5305 26 80.4058 25.57 79.4796 24.7099C78.5865 23.8168 78.1399 22.6756 78.1399 21.2863C78.1399 19.8969 78.5865 18.7723 79.4796 17.9122C80.4058 17.0191 81.5305 16.5725 82.8537 16.5725C84.2099 16.5725 85.3346 17.0191 86.2277 17.9122C87.1208 18.7723 87.5674 19.8969 87.5674 21.2863C87.5674 22.6756 87.1208 23.8168 86.2277 24.7099C85.3346 25.57 84.2099 26 82.8537 26Z" fill="black" fill-opacity="0.5"/>
</svg>
