<svg width="31" height="26" viewBox="0 0 31 26" fill="none" xmlns="http://www.w3.org/2000/svg">
<path d="M31 3.07804C29.8595 3.60059 28.6337 3.95252 27.3472 4.11116C28.6608 3.29932 29.6696 2.01292 30.1436 0.479902C28.9152 1.23175 27.5538 1.7783 26.1046 2.07291C24.946 0.79717 23.2913 0 21.4623 0C17.3561 0 14.3388 3.95386 15.2662 8.05835C9.982 7.78507 5.29583 5.17227 2.15838 1.20109C0.492125 4.15115 1.29425 8.01036 4.12558 9.96462C3.0845 9.92996 2.10283 9.63536 1.24646 9.14346C1.17671 12.1842 3.28858 15.0289 6.34725 15.6621C5.45213 15.9127 4.47175 15.9714 3.47458 15.7741C4.28317 18.3816 6.63142 20.2785 9.41625 20.3318C6.7425 22.4954 3.37383 23.4619 0 23.0513C2.81454 24.9136 6.15867 26 9.7495 26C21.5579 26 28.2294 15.7074 27.8264 6.476C29.069 5.54953 30.1475 4.39377 31 3.07804Z" fill="white"/>
</svg>
